<?xml version="1.0" encoding="UTF-8" standalone="no"?>
<!DOCTYPE svg PUBLIC "-//W3C//DTD SVG 1.1//EN"
 "http://www.w3.org/Graphics/SVG/1.1/DTD/svg11.dtd">
<!-- Generated by graphviz version 2.30.1 (20130620.1435)
 -->
<!-- Title: G Pages: 1 -->
<svg width="572pt" height="558pt"
 viewBox="0.00 0.00 572.00 558.00" xmlns="http://www.w3.org/2000/svg" xmlns:xlink="http://www.w3.org/1999/xlink">
<g id="graph0" class="graph" transform="scale(1 1) rotate(0) translate(4 554)">
<title>G</title>
<polygon fill="white" stroke="white" points="-4,5 -4,-554 569,-554 569,5 -4,5"/>
<g id="clust1" class="cluster"><title>cluster_Global</title>
<path fill="none" stroke="gray" d="M98,-44C98,-44 544,-44 544,-44 550,-44 556,-50 556,-56 556,-56 556,-530 556,-530 556,-536 550,-542 544,-542 544,-542 98,-542 98,-542 92,-542 86,-536 86,-530 86,-530 86,-56 86,-56 86,-50 92,-44 98,-44"/>
<text text-anchor="middle" x="321" y="-527" font-family="Times,serif" font-size="11.00" fill="gray">\</text>
</g>
<g id="clust2" class="cluster"><title>cluster_\Drs</title>
<path fill="none" stroke="gray" d="M106,-170C106,-170 536,-170 536,-170 542,-170 548,-176 548,-182 548,-182 548,-501 548,-501 548,-507 542,-513 536,-513 536,-513 106,-513 106,-513 100,-513 94,-507 94,-501 94,-501 94,-182 94,-182 94,-176 100,-170 106,-170"/>
<text text-anchor="middle" x="321" y="-498" font-family="Times,serif" font-size="11.00" fill="gray">Drs</text>
</g>
<g id="clust3" class="cluster"><title>cluster_\SKE</title>
<path fill="none" stroke="gray" d="M407,-52C407,-52 471,-52 471,-52 477,-52 483,-58 483,-64 483,-64 483,-150 483,-150 483,-156 477,-162 471,-162 471,-162 407,-162 407,-162 401,-162 395,-156 395,-150 395,-150 395,-64 395,-64 395,-58 401,-52 407,-52"/>
<text text-anchor="middle" x="439" y="-147" font-family="Times,serif" font-size="11.00" fill="gray">SKE</text>
</g>
<g id="clust4" class="cluster"><title>cluster_\SKE\Composer</title>
<path fill="none" stroke="gray" d="M415,-60C415,-60 463,-60 463,-60 469,-60 475,-66 475,-72 475,-72 475,-121 475,-121 475,-127 469,-133 463,-133 463,-133 415,-133 415,-133 409,-133 403,-127 403,-121 403,-121 403,-72 403,-72 403,-66 409,-60 415,-60"/>
<text text-anchor="middle" x="439" y="-118" font-family="Times,serif" font-size="11.00" fill="gray">Composer</text>
</g>
<!-- \\Drs\\DrsCollection -->
<g id="node1" class="node"><title>\\Drs\\DrsCollection</title>
<polygon fill="none" stroke="black" points="489.814,-484 388.186,-484 388.186,-448 489.814,-448 489.814,-484"/>
<text text-anchor="middle" x="439" y="-461.6" font-family="Courier,monospace" font-size="11.00">DrsCollection</text>
</g>
<!-- \\Drs\\DrsItem -->
<g id="node3" class="node"><title>\\Drs\\DrsItem</title>
<polygon fill="none" stroke="black" points="164.208,-484 101.792,-484 101.792,-448 164.208,-448 164.208,-484"/>
<text text-anchor="middle" x="133" y="-461.6" font-family="Courier,monospace" font-size="11.00">DrsItem</text>
</g>
<!-- \\Drs\\DrsCollection&#45;&gt;\\Drs\\DrsItem -->
<g id="edge1" class="edge"><title>\\Drs\\DrsCollection&#45;&gt;\\Drs\\DrsItem</title>
<path fill="none" stroke="black" d="M388.141,-466C328.482,-466 229.751,-466 174.552,-466"/>
<polygon fill="none" stroke="black" points="174.444,-462.5 164.443,-466 174.443,-469.5 174.444,-462.5"/>
</g>
<!-- \\Drs\\DrsRepoServiceProvider -->
<g id="node2" class="node"><title>\\Drs\\DrsRepoServiceProvider</title>
<polygon fill="none" stroke="black" points="519.724,-430 358.276,-430 358.276,-394 519.724,-394 519.724,-430"/>
<text text-anchor="middle" x="439" y="-407.6" font-family="Courier,monospace" font-size="11.00">DrsRepoServiceProvider</text>
</g>
<!-- \\Silex\\ServiceProviderInterface -->
<g id="node9" class="node"><title>\\Silex\\ServiceProviderInterface</title>
<ellipse fill="none" stroke="black" cx="133" cy="-18" rx="132.543" ry="18"/>
<text text-anchor="middle" x="133" y="-12.4" font-family="Times,serif" font-size="14.00" fill="gray">\Silex\ServiceProviderInterface</text>
</g>
<!-- \\Drs\\DrsRepoServiceProvider&#45;&gt;\\Silex\\ServiceProviderInterface -->
<g id="edge2" class="edge"><title>\\Drs\\DrsRepoServiceProvider&#45;&gt;\\Silex\\ServiceProviderInterface</title>
<path fill="none" stroke="black" stroke-dasharray="1,5" d="M358.155,-398.553C350.773,-395.009 343.874,-390.566 338,-385 263.624,-314.53 317.174,-254.764 266,-166 237.902,-117.263 191.896,-70.4464 162.29,-42.9543"/>
<polygon fill="none" stroke="black" points="164.506,-40.238 154.77,-36.0595 159.776,-45.3975 164.506,-40.238"/>
</g>
<!-- \\Drs\\DrsSearchServiceProvider -->
<g id="node4" class="node"><title>\\Drs\\DrsSearchServiceProvider</title>
<polygon fill="none" stroke="black" points="526.426,-376 351.574,-376 351.574,-340 526.426,-340 526.426,-376"/>
<text text-anchor="middle" x="439" y="-353.6" font-family="Courier,monospace" font-size="11.00">DrsSearchServiceProvider</text>
</g>
<!-- \\Drs\\DrsSearchServiceProvider&#45;&gt;\\Silex\\ServiceProviderInterface -->
<g id="edge3" class="edge"><title>\\Drs\\DrsSearchServiceProvider&#45;&gt;\\Silex\\ServiceProviderInterface</title>
<path fill="none" stroke="black" stroke-dasharray="1,5" d="M351.351,-340.262C346.587,-337.591 342.086,-334.523 338,-331 277.402,-278.754 309.169,-233.366 266,-166 235.477,-118.368 189.755,-70.9081 160.92,-43.0234"/>
<polygon fill="none" stroke="black" points="163.261,-40.4189 153.617,-36.0307 158.42,-45.4748 163.261,-40.4189"/>
</g>
<!-- \\Drs\\DrsUser -->
<g id="node5" class="node"><title>\\Drs\\DrsUser</title>
<polygon fill="none" stroke="black" points="470.208,-322 407.792,-322 407.792,-286 470.208,-286 470.208,-322"/>
<text text-anchor="middle" x="439" y="-299.6" font-family="Courier,monospace" font-size="11.00">DrsUser</text>
</g>
<!-- \\Drs\\DrsUserCollection -->
<g id="node6" class="node"><title>\\Drs\\DrsUserCollection</title>
<polygon fill="none" stroke="black" points="503.218,-268 374.782,-268 374.782,-232 503.218,-232 503.218,-268"/>
<text text-anchor="middle" x="439" y="-245.6" font-family="Courier,monospace" font-size="11.00">DrsUserCollection</text>
</g>
<!-- \\Drs\\DrsCollectionServiceProvider -->
<g id="node7" class="node"><title>\\Drs\\DrsCollectionServiceProvider</title>
<polygon fill="none" stroke="black" points="539.33,-214 338.67,-214 338.67,-178 539.33,-178 539.33,-214"/>
<text text-anchor="middle" x="439" y="-191.6" font-family="Courier,monospace" font-size="11.00">DrsCollectionServiceProvider</text>
</g>
<!-- \\Drs\\DrsCollectionServiceProvider&#45;&gt;\\Silex\\ServiceProviderInterface -->
<g id="edge4" class="edge"><title>\\Drs\\DrsCollectionServiceProvider&#45;&gt;\\Silex\\ServiceProviderInterface</title>
<path fill="none" stroke="black" stroke-dasharray="1,5" d="M407.178,-177.953C351.47,-145.334 234.137,-76.633 172.964,-40.8142"/>
<polygon fill="none" stroke="black" points="174.401,-37.5998 164.002,-35.5672 170.864,-43.6404 174.401,-37.5998"/>
</g>
<!-- \\SKE\\Composer\\Script -->
<g id="node8" class="node"><title>\\SKE\\Composer\\Script</title>
<polygon fill="none" stroke="black" points="466.608,-104 411.392,-104 411.392,-68 466.608,-68 466.608,-104"/>
<text text-anchor="middle" x="439" y="-81.6" font-family="Courier,monospace" font-size="11.00">Script</text>
</g>
</g>
</svg>
